<svg xmlns="http://www.w3.org/2000/svg" width="132.051" height="156.696" viewBox="0 0 132.051 156.696">
  <path id="Path_184" data-name="Path 184" d="M1594.384,440.026a3.561,3.561,0,0,0-3.608.079l-19.721,12.167v-9.133a3.554,3.554,0,0,0-.2-1.176,33.157,33.157,0,1,0-43.936-44.842,33.157,33.157,0,1,0-43.937,44.842,3.555,3.555,0,0,0-.2,1.176V445.7h-10.848a3.566,3.566,0,0,0-3.565,3.566v40.852a3.566,3.566,0,0,0,3.565,3.566h10.848v2.562a3.567,3.567,0,0,0,3.566,3.566h28.681l-37.159,29.432a3.566,3.566,0,0,0,4.429,5.591l42.975-34.04,42.974,34.04a3.566,3.566,0,1,0,4.428-5.591l-37.159-29.432h31.978a3.567,3.567,0,0,0,3.566-3.566v-9.134l19.721,12.168a3.566,3.566,0,0,0,5.438-3.034V443.141a3.565,3.565,0,0,0-1.828-3.114Zm-5.3,49.83-18.027-11.123V460.652l18.027-11.123Zm-99.175,2.824V446.7h74.015V492.68Zm-14.413-39.848h7.283v33.72h-7.283Zm21.828-66.791a26.028,26.028,0,1,1-26.028,26.028A26.056,26.056,0,0,1,1497.322,386.041Zm59.186,0a26.028,26.028,0,1,1-26.028,26.028A26.057,26.057,0,0,1,1556.508,386.041Zm-18.5,53.533h-22.185a33.378,33.378,0,0,0,11.093-12.558,33.376,33.376,0,0,0,11.092,12.558Z" transform="translate(-1464.163 -378.91)" fill="#fff"/>
</svg>
