<svg id="Group_337" data-name="Group 337" xmlns="http://www.w3.org/2000/svg" width="41.364" height="41.364" viewBox="0 0 41.364 41.364">
  <circle id="Ellipse_3" data-name="Ellipse 3" cx="18.019" cy="18.019" r="18.019" transform="translate(0 35.569) rotate(-80.747)" fill="#fff"/>
  <path id="Path_61" data-name="Path 61" d="M1696.789,6892.028a5.06,5.06,0,0,0-1.544-3.257,5.3,5.3,0,0,0-3.5-1.422,68.894,68.894,0,0,0-9.44.106,4.818,4.818,0,0,0-4.13,3.707c-.455,1.624-.365,9.11-.1,10.715a4.832,4.832,0,0,0,3.835,4.164c1.505.388,8.9.338,10.566.07a4.842,4.842,0,0,0,4.181-3.817C1697.094,6900.625,1696.941,6893.532,1696.789,6892.028Zm-1.757,9.538a3.231,3.231,0,0,1-3.039,2.883c-1.54.169-8.415.262-9.844-.138a3.129,3.129,0,0,1-2.374-2.7,63.77,63.77,0,0,1,0-9.632,3.227,3.227,0,0,1,3.024-2.871,67.448,67.448,0,0,1,9.4.038,3.233,3.233,0,0,1,2.878,3.043A68.546,68.546,0,0,1,1695.032,6901.566Zm-7.631-9.678a4.895,4.895,0,1,0,4.892,4.9A4.893,4.893,0,0,0,1687.4,6891.888Zm-.034,8.056a3.165,3.165,0,1,1,3.194-3.136A3.164,3.164,0,0,1,1687.367,6899.944Zm6.265-8.241a1.146,1.146,0,1,1-1.143-1.148A1.146,1.146,0,0,1,1693.632,6891.7Z" transform="translate(-1666.527 -6876.063)" fill="#080909"/>
  <path id="Path_62" data-name="Path 62" d="M1696.789,6892.028a5.06,5.06,0,0,0-1.544-3.257,5.3,5.3,0,0,0-3.5-1.422,68.894,68.894,0,0,0-9.44.106,4.818,4.818,0,0,0-4.13,3.707c-.455,1.624-.365,9.11-.1,10.715a4.832,4.832,0,0,0,3.835,4.164c1.505.388,8.9.338,10.566.07a4.842,4.842,0,0,0,4.181-3.817C1697.094,6900.625,1696.941,6893.532,1696.789,6892.028Zm-1.757,9.538a3.231,3.231,0,0,1-3.039,2.883c-1.54.169-8.415.262-9.844-.138a3.129,3.129,0,0,1-2.374-2.7,63.77,63.77,0,0,1,0-9.632,3.227,3.227,0,0,1,3.024-2.871,67.448,67.448,0,0,1,9.4.038,3.233,3.233,0,0,1,2.878,3.043A68.546,68.546,0,0,1,1695.032,6901.566Zm-7.631-9.678a4.895,4.895,0,1,0,4.892,4.9A4.893,4.893,0,0,0,1687.4,6891.888Zm-.034,8.056a3.165,3.165,0,1,1,3.194-3.136A3.164,3.164,0,0,1,1687.367,6899.944Zm6.265-8.241a1.146,1.146,0,1,1-1.143-1.148A1.146,1.146,0,0,1,1693.632,6891.7Z" transform="translate(-1666.527 -6876.063)" fill="#080909"/>
</svg>
