<svg xmlns="http://www.w3.org/2000/svg" xmlns:xlink="http://www.w3.org/1999/xlink" width="144.281" height="145.126" viewBox="0 0 144.281 145.126">
  <defs>
    <linearGradient id="linear-gradient" x1="0.5" x2="0.5" y2="1" gradientUnits="objectBoundingBox">
      <stop offset="0" stop-color="#f74a82"/>
      <stop offset="1" stop-color="#f74a82"/>
    </linearGradient>
    <clipPath id="clip-path">
      <rect id="Rectangle_1687" data-name="Rectangle 1687" width="85.209" height="119.463" fill="url(#linear-gradient)"/>
    </clipPath>
  </defs>
  <g id="Group_514" data-name="Group 514" transform="matrix(0.719, -0.695, 0.695, 0.719, 0, 59.191)">
    <g id="Group_513" data-name="Group 513" clip-path="url(#clip-path)">
      <path id="Path_295" data-name="Path 295" d="M73.946,39.883h-.759a11.173,11.173,0,0,0-4.7,1.028,11.28,11.28,0,0,0-11.006-8.878h-.762a11.189,11.189,0,0,0-5.317,1.336,11.276,11.276,0,0,0-10.384-6.908h-.762a11.172,11.172,0,0,0-4.441.914V11.258A11.27,11.27,0,0,0,24.561,0H23.8A11.27,11.27,0,0,0,12.542,11.258V52.6L7.421,56.485A18.762,18.762,0,0,0,4.178,83.228l15.98,19.756v7.852a8.637,8.637,0,0,0,8.625,8.627H68.675a8.637,8.637,0,0,0,8.627-8.627l0-7.455a36.282,36.282,0,0,0,7.9-22.564V51.142A11.275,11.275,0,0,0,73.947,39.884Zm4.443,40.933A29.469,29.469,0,0,1,71.3,99.942a3.4,3.4,0,0,0-.818,2.215v8.68a1.814,1.814,0,0,1-1.811,1.811H28.783a1.814,1.814,0,0,1-1.81-1.811v-9.058a3.406,3.406,0,0,0-.759-2.144L9.478,78.942a11.947,11.947,0,0,1,2.065-17.029l1-.756V70.52a3.408,3.408,0,0,0,6.816,0V11.256A4.446,4.446,0,0,1,23.8,6.813h.762A4.448,4.448,0,0,1,29,11.256V37.723l.017,22.01a3.408,3.408,0,0,0,3.408,3.405h0a3.408,3.408,0,0,0,3.405-3.411l-.018-22.008a4.446,4.446,0,0,1,4.441-4.443h.762a4.448,4.448,0,0,1,4.443,4.443V43.3l.015,16.439a3.408,3.408,0,0,0,3.408,3.405h0A3.409,3.409,0,0,0,52.3,59.728L52.28,43.291a4.446,4.446,0,0,1,4.441-4.443h.762a4.448,4.448,0,0,1,4.443,4.443v6.966c-.011.112-.034.222-.034.336l.017,9.143a3.406,3.406,0,0,0,3.408,3.4h.006a3.407,3.407,0,0,0,3.4-3.415l-.015-8.268a3.088,3.088,0,0,0,.032-.314A4.448,4.448,0,0,1,73.183,46.7h.759a4.448,4.448,0,0,1,4.443,4.443V80.816Z" transform="translate(0)" fill="url(#linear-gradient)"/>
    </g>
  </g>
</svg>
